<svg width="90" height="20" viewBox="0 0 45 10" fill="none" xmlns="http://www.w3.org/2000/svg">
<path d="M0.584 9C0.408 9 0.272 8.956 0.176 8.868C0.0880001 8.772 0.0440001 8.636 0.0440001 8.46V1.08C0.0440001 0.904 0.0880001 0.772 0.176 0.684C0.272 0.588 0.408 0.539999 0.584 0.539999H5.048C5.184 0.539999 5.288 0.575999 5.36 0.648C5.432 0.72 5.468 0.82 5.468 0.948C5.468 1.084 5.432 1.188 5.36 1.26C5.288 1.332 5.184 1.368 5.048 1.368H1.004V4.296H4.796C4.932 4.296 5.036 4.332 5.108 4.404C5.18 4.468 5.216 4.568 5.216 4.704C5.216 4.84 5.18 4.944 5.108 5.016C5.036 5.088 4.932 5.124 4.796 5.124H1.004V8.172H5.048C5.184 8.172 5.288 8.208 5.36 8.28C5.432 8.352 5.468 8.452 5.468 8.58C5.468 8.716 5.432 8.82 5.36 8.892C5.288 8.964 5.184 9 5.048 9H0.584ZM9.65891 9.108C9.28291 9.108 8.91491 9.076 8.55491 9.012C8.19491 8.948 7.85891 8.856 7.54691 8.736C7.24291 8.616 6.96691 8.464 6.71891 8.28C6.62291 8.208 6.55491 8.128 6.51491 8.04C6.48291 7.944 6.47491 7.852 6.49091 7.764C6.51491 7.668 6.55491 7.588 6.61091 7.524C6.67491 7.46 6.75091 7.424 6.83891 7.416C6.92691 7.408 7.02291 7.436 7.12691 7.5C7.48691 7.756 7.87091 7.944 8.27891 8.064C8.68691 8.176 9.14691 8.232 9.65891 8.232C10.3789 8.232 10.9109 8.1 11.2549 7.836C11.6069 7.564 11.7829 7.208 11.7829 6.768C11.7829 6.408 11.6549 6.128 11.3989 5.928C11.1509 5.72 10.7309 5.556 10.1389 5.436L8.89091 5.184C8.13891 5.024 7.57491 4.764 7.19891 4.404C6.83091 4.036 6.64691 3.548 6.64691 2.94C6.64691 2.564 6.72291 2.224 6.87491 1.92C7.02691 1.608 7.23891 1.344 7.51091 1.128C7.78291 0.904 8.10691 0.732 8.48291 0.611999C8.85891 0.491999 9.27491 0.431999 9.73091 0.431999C10.2349 0.431999 10.7029 0.503999 11.1349 0.648C11.5749 0.784 11.9709 0.992 12.3229 1.272C12.4109 1.344 12.4709 1.428 12.5029 1.524C12.5349 1.612 12.5389 1.7 12.5149 1.788C12.4909 1.868 12.4469 1.936 12.3829 1.992C12.3269 2.048 12.2509 2.08 12.1549 2.088C12.0669 2.096 11.9669 2.064 11.8549 1.992C11.5349 1.752 11.2029 1.58 10.8589 1.476C10.5149 1.364 10.1349 1.308 9.71891 1.308C9.29491 1.308 8.92691 1.372 8.61491 1.5C8.31091 1.628 8.07091 1.816 7.89491 2.064C7.72691 2.304 7.64291 2.584 7.64291 2.904C7.64291 3.288 7.75891 3.592 7.99091 3.816C8.23091 4.04 8.61891 4.204 9.15491 4.308L10.4029 4.572C11.2109 4.74 11.8069 4.996 12.1909 5.34C12.5829 5.676 12.7789 6.136 12.7789 6.72C12.7789 7.072 12.7069 7.396 12.5629 7.692C12.4189 7.988 12.2109 8.244 11.9389 8.46C11.6669 8.668 11.3389 8.828 10.9549 8.94C10.5709 9.052 10.1389 9.108 9.65891 9.108ZM17.0417 9.108C16.6657 9.108 16.2977 9.076 15.9377 9.012C15.5777 8.948 15.2417 8.856 14.9297 8.736C14.6257 8.616 14.3497 8.464 14.1017 8.28C14.0057 8.208 13.9377 8.128 13.8977 8.04C13.8657 7.944 13.8577 7.852 13.8737 7.764C13.8977 7.668 13.9377 7.588 13.9937 7.524C14.0577 7.46 14.1337 7.424 14.2217 7.416C14.3097 7.408 14.4057 7.436 14.5097 7.5C14.8697 7.756 15.2537 7.944 15.6617 8.064C16.0697 8.176 16.5297 8.232 17.0417 8.232C17.7617 8.232 18.2937 8.1 18.6377 7.836C18.9897 7.564 19.1657 7.208 19.1657 6.768C19.1657 6.408 19.0377 6.128 18.7817 5.928C18.5337 5.72 18.1137 5.556 17.5217 5.436L16.2737 5.184C15.5217 5.024 14.9577 4.764 14.5817 4.404C14.2137 4.036 14.0297 3.548 14.0297 2.94C14.0297 2.564 14.1057 2.224 14.2577 1.92C14.4097 1.608 14.6217 1.344 14.8937 1.128C15.1657 0.904 15.4897 0.732 15.8657 0.611999C16.2417 0.491999 16.6577 0.431999 17.1137 0.431999C17.6177 0.431999 18.0857 0.503999 18.5177 0.648C18.9577 0.784 19.3537 0.992 19.7057 1.272C19.7937 1.344 19.8537 1.428 19.8857 1.524C19.9177 1.612 19.9217 1.7 19.8977 1.788C19.8737 1.868 19.8297 1.936 19.7657 1.992C19.7097 2.048 19.6337 2.08 19.5377 2.088C19.4497 2.096 19.3497 2.064 19.2377 1.992C18.9177 1.752 18.5857 1.58 18.2417 1.476C17.8977 1.364 17.5177 1.308 17.1017 1.308C16.6777 1.308 16.3097 1.372 15.9977 1.5C15.6937 1.628 15.4537 1.816 15.2777 2.064C15.1097 2.304 15.0257 2.584 15.0257 2.904C15.0257 3.288 15.1417 3.592 15.3737 3.816C15.6137 4.04 16.0017 4.204 16.5377 4.308L17.7857 4.572C18.5937 4.74 19.1897 4.996 19.5737 5.34C19.9657 5.676 20.1617 6.136 20.1617 6.72C20.1617 7.072 20.0897 7.396 19.9457 7.692C19.8017 7.988 19.5937 8.244 19.3217 8.46C19.0497 8.668 18.7217 8.828 18.3377 8.94C17.9537 9.052 17.5217 9.108 17.0417 9.108ZM22.2285 9C22.0525 9 21.9165 8.956 21.8205 8.868C21.7325 8.772 21.6885 8.636 21.6885 8.46V1.08C21.6885 0.904 21.7325 0.772 21.8205 0.684C21.9165 0.588 22.0525 0.539999 22.2285 0.539999H26.6925C26.8285 0.539999 26.9325 0.575999 27.0045 0.648C27.0765 0.72 27.1125 0.82 27.1125 0.948C27.1125 1.084 27.0765 1.188 27.0045 1.26C26.9325 1.332 26.8285 1.368 26.6925 1.368H22.6485V4.296H26.4405C26.5765 4.296 26.6805 4.332 26.7525 4.404C26.8245 4.468 26.8605 4.568 26.8605 4.704C26.8605 4.84 26.8245 4.944 26.7525 5.016C26.6805 5.088 26.5765 5.124 26.4405 5.124H22.6485V8.172H26.6925C26.8285 8.172 26.9325 8.208 27.0045 8.28C27.0765 8.352 27.1125 8.452 27.1125 8.58C27.1125 8.716 27.0765 8.82 27.0045 8.892C26.9325 8.964 26.8285 9 26.6925 9H22.2285ZM29.1526 9.084C29.0006 9.084 28.8846 9.044 28.8046 8.964C28.7246 8.876 28.6846 8.752 28.6846 8.592V0.96C28.6846 0.799999 28.7246 0.675999 28.8046 0.588C28.8846 0.5 28.9886 0.456 29.1166 0.456C29.2446 0.456 29.3366 0.48 29.3926 0.528C29.4566 0.568 29.5286 0.644 29.6086 0.756L34.8406 7.728H34.5526V0.935999C34.5526 0.783999 34.5926 0.668 34.6726 0.588C34.7526 0.5 34.8686 0.456 35.0206 0.456C35.1646 0.456 35.2726 0.5 35.3446 0.588C35.4246 0.668 35.4646 0.783999 35.4646 0.935999V8.604C35.4646 8.756 35.4286 8.876 35.3566 8.964C35.2926 9.044 35.1966 9.084 35.0686 9.084C34.9486 9.084 34.8526 9.06 34.7806 9.012C34.7086 8.964 34.6326 8.888 34.5526 8.784L29.3326 1.812H29.6086V8.592C29.6086 8.752 29.5686 8.876 29.4886 8.964C29.4086 9.044 29.2966 9.084 29.1526 9.084ZM38.1074 9C37.9314 9 37.7954 8.956 37.6994 8.868C37.6114 8.772 37.5674 8.636 37.5674 8.46V1.08C37.5674 0.904 37.6114 0.772 37.6994 0.684C37.7954 0.588 37.9314 0.539999 38.1074 0.539999H40.4234C41.7914 0.539999 42.8474 0.9 43.5914 1.62C44.3354 2.34 44.7074 3.388 44.7074 4.764C44.7074 5.452 44.6114 6.06 44.4194 6.588C44.2354 7.108 43.9594 7.548 43.5914 7.908C43.2234 8.268 42.7754 8.54 42.2474 8.724C41.7194 8.908 41.1114 9 40.4234 9H38.1074ZM38.5514 8.16H40.3514C40.9114 8.16 41.3954 8.088 41.8034 7.944C42.2194 7.8 42.5634 7.588 42.8354 7.308C43.1154 7.028 43.3234 6.676 43.4594 6.252C43.5954 5.82 43.6634 5.324 43.6634 4.764C43.6634 3.636 43.3874 2.792 42.8354 2.232C42.2834 1.664 41.4554 1.38 40.3514 1.38H38.5514V8.16Z" fill="white"/>
</svg>
